<mxfile host="app.diagrams.net" modified="2023-08-14T06:46:30.036Z" agent="Mozilla/5.0 (Windows NT 10.0; Win64; x64) AppleWebKit/537.36 (KHTML, like Gecko) Chrome/115.0.0.0 Safari/537.36" etag="o-06vz_y0RyIlf1j2iUN" version="21.6.8" type="device">
  <diagram name="Page-1" id="K3SEERITZxdXsGj7sH8l">
    <mxGraphModel dx="880" dy="516" grid="1" gridSize="10" guides="1" tooltips="1" connect="1" arrows="1" fold="1" page="1" pageScale="1" pageWidth="850" pageHeight="1100" math="0" shadow="0">
      <root>
        <mxCell id="0" />
        <mxCell id="1" parent="0" />
        <mxCell id="9_4H7yNGfkG78p05Q4yS-6" value="" style="edgeStyle=orthogonalEdgeStyle;rounded=0;orthogonalLoop=1;jettySize=auto;html=1;" edge="1" parent="1" source="9_4H7yNGfkG78p05Q4yS-1" target="9_4H7yNGfkG78p05Q4yS-2">
          <mxGeometry relative="1" as="geometry" />
        </mxCell>
        <mxCell id="9_4H7yNGfkG78p05Q4yS-1" value="START" style="ellipse;whiteSpace=wrap;html=1;" vertex="1" parent="1">
          <mxGeometry x="320" y="50" width="230" height="140" as="geometry" />
        </mxCell>
        <mxCell id="9_4H7yNGfkG78p05Q4yS-7" value="" style="edgeStyle=orthogonalEdgeStyle;rounded=0;orthogonalLoop=1;jettySize=auto;html=1;" edge="1" parent="1" source="9_4H7yNGfkG78p05Q4yS-2" target="9_4H7yNGfkG78p05Q4yS-4">
          <mxGeometry relative="1" as="geometry" />
        </mxCell>
        <mxCell id="9_4H7yNGfkG78p05Q4yS-2" value="OUTPUT&lt;br&gt;&quot;MASUKKAN NAMA : &quot;" style="shape=parallelogram;perimeter=parallelogramPerimeter;whiteSpace=wrap;html=1;fixedSize=1;" vertex="1" parent="1">
          <mxGeometry x="325" y="260" width="220" height="100" as="geometry" />
        </mxCell>
        <mxCell id="9_4H7yNGfkG78p05Q4yS-8" value="" style="edgeStyle=orthogonalEdgeStyle;rounded=0;orthogonalLoop=1;jettySize=auto;html=1;" edge="1" parent="1" source="9_4H7yNGfkG78p05Q4yS-4" target="9_4H7yNGfkG78p05Q4yS-5">
          <mxGeometry relative="1" as="geometry" />
        </mxCell>
        <mxCell id="9_4H7yNGfkG78p05Q4yS-4" value="INPUT&lt;br&gt;NAMA" style="shape=parallelogram;perimeter=parallelogramPerimeter;whiteSpace=wrap;html=1;fixedSize=1;" vertex="1" parent="1">
          <mxGeometry x="325" y="420" width="220" height="100" as="geometry" />
        </mxCell>
        <mxCell id="9_4H7yNGfkG78p05Q4yS-5" value="FINISH" style="ellipse;whiteSpace=wrap;html=1;" vertex="1" parent="1">
          <mxGeometry x="330" y="590" width="210" height="140" as="geometry" />
        </mxCell>
      </root>
    </mxGraphModel>
  </diagram>
</mxfile>
